<svg width="2000px" height="2765px"
 viewBox="0.00 0.00 599.28 827.71" xmlns="http://www.w3.org/2000/svg" xmlns:xlink="http://www.w3.org/1999/xlink">
<g id="graph0" class="graph" transform="scale(1.0 1.0) rotate(0) translate(4 823.71)">
<title>ContextMapGraph</title>
<polygon fill="white" stroke="transparent" points="-4,4 -4,-823.71 595.28,-823.71 595.28,4 -4,4"/>
<!-- Certification -->
<g id="node1" class="node">
<title>Certification</title>
<polygon fill="none" stroke="black" stroke-width="2" points="366.2,-355.18 364.37,-357.93 362.32,-360.62 360.04,-363.24 357.56,-365.78 354.87,-368.24 351.98,-370.6 348.91,-372.85 345.66,-374.98 342.25,-376.99 338.68,-378.87 334.97,-380.61 331.12,-382.21 327.14,-383.65 323.06,-384.94 318.87,-386.08 314.59,-387.05 310.24,-387.86 305.81,-388.51 301.33,-389 296.81,-389.32 292.25,-389.48 287.67,-389.48 283.08,-389.33 278.49,-389.02 273.92,-388.57 269.36,-387.97 264.83,-387.23 260.35,-386.36 255.92,-385.37 251.56,-384.25 247.27,-383.03 243.06,-381.69 238.95,-380.26 234.94,-378.74 231.05,-377.14 227.27,-375.46 223.63,-373.71 220.12,-371.91 216.76,-370.05 213.56,-368.14 210.53,-366.19 207.66,-364.22 204.98,-362.21 202.48,-360.19 200.17,-358.15 198.07,-356.1 196.17,-354.04 194.48,-351.98 193.01,-349.93 191.76,-347.89 190.74,-345.85 189.95,-343.83 189.4,-341.83 189.08,-339.84 189,-337.87 189.16,-335.93 189.57,-334.01 190.22,-332.11 191.11,-330.24 192.25,-328.4 193.63,-326.59 195.25,-324.81 197.11,-323.06 199.2,-321.34 201.52,-319.65 204.07,-318 206.83,-316.39 209.81,-314.82 213,-313.28 216.38,-311.79 219.96,-310.35 223.71,-308.95 227.64,-307.6 231.72,-306.31 235.96,-305.08 240.33,-303.91 244.83,-302.8 249.44,-301.76 254.14,-300.8 258.93,-299.92 263.8,-299.12 268.72,-298.41 273.67,-297.79 278.66,-297.27 283.65,-296.86 288.65,-296.55 293.62,-296.35 298.55,-296.28 303.44,-296.32 308.25,-296.48 312.99,-296.78 317.63,-297.2 322.16,-297.76 326.56,-298.46 330.83,-299.29 334.94,-300.26 338.89,-301.37 342.66,-302.62 346.25,-304 349.63,-305.52 352.81,-307.17 355.77,-308.95 358.5,-310.86 361,-312.88 363.26,-315.02 365.27,-317.27 367.03,-319.62 368.53,-322.06 369.77,-324.59 370.75,-327.2 371.47,-329.87 371.92,-332.6 372.11,-335.38 372.03,-338.19 371.69,-341.03 371.1,-343.88 370.24,-346.73 369.14,-349.57 367.79,-352.39 366.2,-355.18"/>
<text text-anchor="middle" x="279.57" y="-337.28" font-family="sans-serif" font-size="16.00">Certification</text>
</g>
<!-- Provider -->
<g id="node2" class="node">
<title>Provider</title>
<polygon fill="none" stroke="black" stroke-width="2" points="213.69,-175.36 215.78,-172.77 218.05,-170.24 220.47,-167.8 223.05,-165.44 225.77,-163.19 228.62,-161.05 231.59,-159.03 234.68,-157.13 237.88,-155.37 241.16,-153.75 244.53,-152.27 247.98,-150.95 251.48,-149.79 255.05,-148.78 258.65,-147.94 262.29,-147.26 265.96,-146.75 269.64,-146.4 273.33,-146.22 277.02,-146.21 280.69,-146.35 284.35,-146.66 287.98,-147.12 291.57,-147.73 295.12,-148.49 298.62,-149.39 302.06,-150.42 305.43,-151.59 308.74,-152.87 311.96,-154.27 315.1,-155.77 318.15,-157.37 321.1,-159.07 323.94,-160.84 326.68,-162.69 329.31,-164.61 331.81,-166.59 334.19,-168.61 336.43,-170.68 338.55,-172.78 340.52,-174.91 342.34,-177.07 344.02,-179.23 345.55,-181.41 346.91,-183.58 348.12,-185.76 349.15,-187.92 350.02,-190.07 350.72,-192.2 351.24,-194.31 351.58,-196.4 351.74,-198.45 351.72,-200.48 351.51,-202.47 351.12,-204.42 350.54,-206.33 349.76,-208.21 348.8,-210.04 347.66,-211.84 346.32,-213.58 344.8,-215.29 343.09,-216.94 341.2,-218.55 339.13,-220.11 336.89,-221.63 334.47,-223.09 331.89,-224.5 329.14,-225.86 326.24,-227.17 323.19,-228.42 320,-229.61 316.68,-230.74 313.24,-231.81 309.67,-232.82 306.01,-233.75 302.24,-234.62 298.4,-235.41 294.48,-236.13 290.5,-236.77 286.46,-237.32 282.4,-237.79 278.31,-238.16 274.2,-238.44 270.1,-238.62 266.02,-238.69 261.96,-238.66 257.95,-238.52 253.99,-238.27 250.1,-237.9 246.3,-237.41 242.58,-236.8 238.98,-236.07 235.49,-235.21 232.14,-234.22 228.93,-233.11 225.87,-231.87 222.97,-230.51 220.25,-229.02 217.71,-227.41 215.36,-225.68 213.21,-223.83 211.26,-221.87 209.52,-219.8 208,-217.62 206.69,-215.35 205.61,-212.99 204.75,-210.54 204.12,-208.02 203.72,-205.43 203.54,-202.78 203.59,-200.09 203.87,-197.35 204.36,-194.59 205.08,-191.81 206.01,-189.02 207.15,-186.24 208.49,-183.47 210.03,-180.73 211.77,-178.02 213.69,-175.36"/>
<text text-anchor="middle" x="279.57" y="-191.36" font-family="sans-serif" font-size="16.00">Provider</text>
</g>
<!-- Certification&#45;&gt;Provider -->
<g id="edge1" class="edge">
<title>Certification&#45;&gt;Provider</title>
<path fill="none" stroke="black" stroke-width="2" d="M279.57,-296.9C279.57,-278.35 279.57,-256.75 279.57,-238.32"/>
<text text-anchor="middle" x="346.57" y="-265.28" font-family="sans-serif" font-size="12.00"> &#160;&#160;&#160;&#160;&#160;&#160;&#160;&#160;&#160;&#160;&#160;&#160;&#160;&#160;&#160;&#160;&#160;&#160;&#160;&#160;&#160;&#160;&#160;&#160;&#160;&#160;&#160;&#160;&#160;&#160;&#160;&#160;&#160;&#160;&#160;&#160;&#160;&#160;&#160;</text>
<polygon fill="white" stroke="transparent" points="273.57,-229.32 273.57,-246.32 286.57,-246.32 286.57,-229.32 273.57,-229.32"/>
<text text-anchor="start" x="275.57" y="-234.72" font-family="sans-serif" font-size="12.00">D</text>
<polygon fill="white" stroke="transparent" points="245.57,-286.9 245.57,-305.9 260.57,-305.9 260.57,-286.9 245.57,-286.9"/>
<polyline fill="none" stroke="black" points="260.57,-286.9 260.57,-305.9 "/>
<text text-anchor="start" x="248.57" y="-293.3" font-family="sans-serif" font-size="12.00">U</text>
<polygon fill="white" stroke="transparent" points="260.57,-286.9 260.57,-305.9 314.57,-305.9 314.57,-286.9 260.57,-286.9"/>
<polygon fill="none" stroke="black" points="260.57,-286.9 260.57,-305.9 314.57,-305.9 314.57,-286.9 260.57,-286.9"/>
<text text-anchor="start" x="263.57" y="-293.3" font-family="sans-serif" font-size="12.00">OHS, PL</text>
</g>
<!-- MerchantCapabilityManagement -->
<g id="node3" class="node">
<title>MerchantCapabilityManagement</title>
<polygon fill="none" stroke="black" stroke-width="2" points="111.23,-71.02 104.62,-68.55 98.52,-66.04 92.96,-63.49 87.95,-60.92 83.52,-58.32 79.69,-55.73 76.48,-53.13 73.9,-50.55 71.97,-47.98 70.7,-45.45 70.09,-42.96 70.16,-40.51 70.89,-38.11 72.3,-35.77 74.38,-33.5 77.11,-31.31 80.5,-29.19 84.53,-27.15 89.18,-25.2 94.44,-23.34 100.28,-21.58 106.68,-19.91 113.62,-18.34 121.07,-16.86 129,-15.5 137.37,-14.23 146.17,-13.06 155.34,-12 164.86,-11.04 174.69,-10.18 184.79,-9.43 195.12,-8.77 205.65,-8.21 216.34,-7.75 227.15,-7.38 238.04,-7.11 248.97,-6.93 259.9,-6.83 270.81,-6.83 281.65,-6.92 292.4,-7.09 303.01,-7.34 313.46,-7.68 323.71,-8.1 333.75,-8.6 343.54,-9.18 353.06,-9.83 362.28,-10.57 371.18,-11.38 379.76,-12.27 387.98,-13.23 395.83,-14.27 403.3,-15.38 410.38,-16.57 417.05,-17.83 423.31,-19.17 429.15,-20.58 434.57,-22.06 439.55,-23.61 444.11,-25.23 448.22,-26.92 451.9,-28.68 455.15,-30.51 457.95,-32.4 460.33,-34.35 462.27,-36.36 463.78,-38.43 464.86,-40.54 465.52,-42.71 465.76,-44.92 465.58,-47.17 464.98,-49.46 463.98,-51.77 462.57,-54.11 460.76,-56.46 458.56,-58.82 455.95,-61.18 452.96,-63.54 449.58,-65.89 445.82,-68.21 441.68,-70.51 437.17,-72.77 432.28,-74.98 427.04,-77.13 421.43,-79.23 415.47,-81.25 409.16,-83.19 402.52,-85.04 395.54,-86.79 388.24,-88.43 380.63,-89.96 372.71,-91.37 364.5,-92.66 356.02,-93.8 347.27,-94.81 338.27,-95.67 329.04,-96.38 319.6,-96.94 309.96,-97.34 300.16,-97.58 290.2,-97.65 280.11,-97.56 269.93,-97.3 259.67,-96.89 249.37,-96.3 239.06,-95.56 228.75,-94.66 218.5,-93.6 208.32,-92.4 198.25,-91.04 188.33,-89.55 178.59,-87.92 169.06,-86.17 159.78,-84.3 150.79,-82.31 142.11,-80.22 133.78,-78.04 125.83,-75.77 118.31,-73.43 111.23,-71.02"/>
<text text-anchor="middle" x="279.57" y="-44.92" font-family="sans-serif" font-size="16.00">MerchantCapabilityManagement</text>
</g>
<!-- Provider&#45;&gt;MerchantCapabilityManagement -->
<g id="edge2" class="edge">
<title>Provider&#45;&gt;MerchantCapabilityManagement</title>
<path fill="none" stroke="black" stroke-width="2" d="M279.57,-146.06C279.57,-130.47 279.57,-113.18 279.57,-97.6"/>
<text text-anchor="middle" x="346.57" y="-118.83" font-family="sans-serif" font-size="12.00"> &#160;&#160;&#160;&#160;&#160;&#160;&#160;&#160;&#160;&#160;&#160;&#160;&#160;&#160;&#160;&#160;&#160;&#160;&#160;&#160;&#160;&#160;&#160;&#160;&#160;&#160;&#160;&#160;&#160;&#160;&#160;&#160;&#160;&#160;&#160;&#160;&#160;&#160;&#160;</text>
<polygon fill="white" stroke="transparent" points="273.57,-88.6 273.57,-105.6 286.57,-105.6 286.57,-88.6 273.57,-88.6"/>
<text text-anchor="start" x="275.57" y="-94" font-family="sans-serif" font-size="12.00">D</text>
<polygon fill="white" stroke="transparent" points="245.57,-136.06 245.57,-155.06 260.57,-155.06 260.57,-136.06 245.57,-136.06"/>
<polyline fill="none" stroke="black" points="260.57,-136.06 260.57,-155.06 "/>
<text text-anchor="start" x="248.57" y="-142.46" font-family="sans-serif" font-size="12.00">U</text>
<polygon fill="white" stroke="transparent" points="260.57,-136.06 260.57,-155.06 314.57,-155.06 314.57,-136.06 260.57,-136.06"/>
<polygon fill="none" stroke="black" points="260.57,-136.06 260.57,-155.06 314.57,-155.06 314.57,-136.06 260.57,-136.06"/>
<text text-anchor="start" x="263.57" y="-142.46" font-family="sans-serif" font-size="12.00">OHS, PL</text>
</g>
<!-- SchemaRegistry -->
<g id="node4" class="node">
<title>SchemaRegistry</title>
<polygon fill="none" stroke="black" stroke-width="2" points="15.75,-773.14 15.47,-770.27 15.5,-767.41 15.85,-764.58 16.52,-761.78 17.5,-759.03 18.81,-756.35 20.43,-753.73 22.37,-751.19 24.61,-748.75 27.15,-746.4 29.98,-744.15 33.11,-742.02 36.51,-740.01 40.18,-738.13 44.11,-736.37 48.29,-734.76 52.71,-733.28 57.36,-731.94 62.21,-730.75 67.26,-729.7 72.5,-728.8 77.9,-728.04 83.46,-727.43 89.15,-726.96 94.96,-726.63 100.87,-726.44 106.86,-726.39 112.93,-726.47 119.04,-726.67 125.18,-727 131.34,-727.44 137.49,-728 143.62,-728.66 149.7,-729.43 155.73,-730.29 161.68,-731.24 167.54,-732.28 173.28,-733.4 178.9,-734.59 184.38,-735.85 189.69,-737.18 194.84,-738.56 199.79,-740 204.54,-741.49 209.08,-743.02 213.39,-744.6 217.46,-746.21 221.28,-747.86 224.85,-749.54 228.14,-751.26 231.16,-753 233.89,-754.76 236.33,-756.55 238.48,-758.36 240.32,-760.19 241.86,-762.04 243.09,-763.91 244.01,-765.8 244.62,-767.7 244.91,-769.61 244.9,-771.54 244.57,-773.48 243.94,-775.42 243,-777.38 241.76,-779.34 240.22,-781.31 238.39,-783.28 236.28,-785.25 233.88,-787.21 231.22,-789.16 228.29,-791.11 225.1,-793.04 221.66,-794.95 217.99,-796.83 214.09,-798.69 209.97,-800.51 205.65,-802.28 201.13,-804.01 196.44,-805.69 191.57,-807.31 186.54,-808.86 181.36,-810.34 176.06,-811.73 170.64,-813.04 165.11,-814.25 159.5,-815.36 153.8,-816.37 148.05,-817.25 142.25,-818.02 136.41,-818.65 130.56,-819.16 124.7,-819.52 118.86,-819.74 113.04,-819.82 107.27,-819.74 101.55,-819.51 95.9,-819.12 90.33,-818.57 84.87,-817.86 79.52,-816.99 74.3,-815.97 69.22,-814.79 64.3,-813.45 59.55,-811.96 54.98,-810.33 50.6,-808.55 46.44,-806.64 42.49,-804.59 38.77,-802.43 35.3,-800.14 32.07,-797.75 29.11,-795.27 26.42,-792.7 24,-790.05 21.87,-787.33 20.04,-784.56 18.51,-781.74 17.28,-778.89 16.36,-776.02 15.75,-773.14"/>
<text text-anchor="middle" x="130.57" y="-768.3" font-family="sans-serif" font-size="16.00">SchemaRegistry</text>
</g>
<!-- SpecificationDSL -->
<g id="node5" class="node">
<title>SpecificationDSL</title>
<polygon fill="none" stroke="black" stroke-width="2" points="75.96,-668.92 69.1,-667.63 62.43,-666.24 55.98,-664.75 49.78,-663.18 43.85,-661.52 38.22,-659.79 32.9,-657.98 27.93,-656.11 23.33,-654.18 19.1,-652.19 15.26,-650.16 11.83,-648.09 8.82,-645.98 6.24,-643.84 4.1,-641.68 2.39,-639.5 1.13,-637.31 0.31,-635.12 -0.07,-632.92 0,-630.72 0.49,-628.54 1.4,-626.37 2.73,-624.22 4.47,-622.09 6.59,-619.99 9.08,-617.92 11.93,-615.89 15.13,-613.9 18.64,-611.96 22.46,-610.06 26.55,-608.22 30.91,-606.44 35.51,-604.71 40.32,-603.05 45.33,-601.45 50.51,-599.92 55.85,-598.46 61.32,-597.08 66.89,-595.78 72.56,-594.56 78.3,-593.43 84.09,-592.38 89.91,-591.42 95.75,-590.55 101.59,-589.77 107.41,-589.09 113.21,-588.51 118.97,-588.03 124.67,-587.65 130.31,-587.38 135.88,-587.21 141.36,-587.15 146.76,-587.2 152.06,-587.36 157.25,-587.63 162.35,-588.01 167.32,-588.5 172.19,-589.1 176.93,-589.82 181.55,-590.64 186.05,-591.58 190.42,-592.62 194.66,-593.78 198.77,-595.04 202.74,-596.4 206.57,-597.86 210.26,-599.42 213.81,-601.08 217.21,-602.83 220.46,-604.67 223.55,-606.58 226.47,-608.58 229.23,-610.65 231.81,-612.79 234.21,-614.99 236.41,-617.24 238.42,-619.55 240.23,-621.89 241.81,-624.27 243.17,-626.68 244.3,-629.11 245.18,-631.55 245.81,-634 246.17,-636.44 246.26,-638.87 246.07,-641.29 245.58,-643.67 244.79,-646.02 243.7,-648.33 242.29,-650.59 240.56,-652.79 238.5,-654.92 236.12,-656.98 233.4,-658.96 230.35,-660.85 226.96,-662.65 223.24,-664.35 219.2,-665.95 214.83,-667.43 210.15,-668.8 205.16,-670.05 199.87,-671.17 194.3,-672.17 188.46,-673.04 182.37,-673.78 176.04,-674.38 169.5,-674.85 162.76,-675.18 155.85,-675.38 148.78,-675.43 141.6,-675.36 134.32,-675.15 126.96,-674.8 119.57,-674.33 112.16,-673.73 104.77,-673 97.42,-672.15 90.15,-671.19 82.99,-670.11 75.96,-668.92"/>
<text text-anchor="middle" x="130.57" y="-626.25" font-family="sans-serif" font-size="16.00">SpecificationDSL</text>
</g>
<!-- SchemaRegistry&#45;&gt;SpecificationDSL -->
<g id="edge3" class="edge">
<title>SchemaRegistry&#45;&gt;SpecificationDSL</title>
<path fill="none" stroke="black" stroke-width="2" d="M130.57,-727.17C130.57,-710.65 130.57,-691.86 130.57,-675.31"/>
<text text-anchor="middle" x="197.57" y="-696.89" font-family="sans-serif" font-size="12.00"> &#160;&#160;&#160;&#160;&#160;&#160;&#160;&#160;&#160;&#160;&#160;&#160;&#160;&#160;&#160;&#160;&#160;&#160;&#160;&#160;&#160;&#160;&#160;&#160;&#160;&#160;&#160;&#160;&#160;&#160;&#160;&#160;&#160;&#160;&#160;&#160;&#160;&#160;&#160;</text>
<polygon fill="white" stroke="transparent" points="112.57,-665.31 112.57,-684.31 127.57,-684.31 127.57,-665.31 112.57,-665.31"/>
<polyline fill="none" stroke="black" points="127.57,-665.31 127.57,-684.31 "/>
<text text-anchor="start" x="115.57" y="-671.71" font-family="sans-serif" font-size="12.00">D</text>
<polygon fill="white" stroke="transparent" points="127.57,-665.31 127.57,-684.31 149.57,-684.31 149.57,-665.31 127.57,-665.31"/>
<polygon fill="none" stroke="black" points="127.57,-665.31 127.57,-684.31 149.57,-684.31 149.57,-665.31 127.57,-665.31"/>
<text text-anchor="start" x="130.57" y="-671.71" font-family="sans-serif" font-size="12.00">CF</text>
<polygon fill="white" stroke="transparent" points="112.57,-717.17 112.57,-736.17 127.57,-736.17 127.57,-717.17 112.57,-717.17"/>
<polyline fill="none" stroke="black" points="127.57,-717.17 127.57,-736.17 "/>
<text text-anchor="start" x="115.57" y="-723.57" font-family="sans-serif" font-size="12.00">U</text>
<polygon fill="white" stroke="transparent" points="127.57,-717.17 127.57,-736.17 148.57,-736.17 148.57,-717.17 127.57,-717.17"/>
<polygon fill="none" stroke="black" points="127.57,-717.17 127.57,-736.17 148.57,-736.17 148.57,-717.17 127.57,-717.17"/>
<text text-anchor="start" x="130.57" y="-723.57" font-family="sans-serif" font-size="12.00">PL</text>
</g>
<!-- SpecificationSDK -->
<g id="node6" class="node">
<title>SpecificationSDK</title>
<polygon fill="none" stroke="black" stroke-width="2" points="248.18,-493.57 247.12,-496.42 245.75,-499.23 244.07,-502 242.07,-504.71 239.77,-507.34 237.18,-509.9 234.3,-512.37 231.14,-514.74 227.7,-517 224.01,-519.15 220.06,-521.17 215.88,-523.06 211.46,-524.81 206.83,-526.42 202,-527.89 196.97,-529.2 191.77,-530.37 186.41,-531.37 180.9,-532.23 175.25,-532.92 169.49,-533.46 163.62,-533.85 157.67,-534.08 151.64,-534.16 145.56,-534.1 139.44,-533.89 133.3,-533.54 127.15,-533.06 121.01,-532.46 114.9,-531.72 108.82,-530.88 102.81,-529.92 96.87,-528.86 91.02,-527.7 85.28,-526.45 79.65,-525.11 74.17,-523.7 68.83,-522.22 63.66,-520.67 58.66,-519.06 53.86,-517.41 49.26,-515.7 44.88,-513.96 40.74,-512.17 36.83,-510.36 33.17,-508.52 29.77,-506.66 26.65,-504.78 23.8,-502.89 21.25,-500.98 18.99,-499.07 17.03,-497.15 15.37,-495.22 14.04,-493.29 13.01,-491.37 12.31,-489.44 11.93,-487.52 11.88,-485.6 12.15,-483.69 12.75,-481.79 13.67,-479.89 14.91,-478 16.47,-476.13 18.34,-474.26 20.53,-472.41 23.02,-470.58 25.81,-468.76 28.89,-466.97 32.25,-465.19 35.89,-463.44 39.79,-461.72 43.95,-460.04 48.35,-458.38 52.98,-456.77 57.83,-455.21 62.88,-453.69 68.13,-452.23 73.55,-450.82 79.13,-449.48 84.86,-448.21 90.71,-447.02 96.68,-445.91 102.75,-444.89 108.89,-443.96 115.1,-443.14 121.35,-442.42 127.63,-441.81 133.91,-441.32 140.19,-440.95 146.44,-440.71 152.65,-440.61 158.79,-440.64 164.86,-440.81 170.83,-441.12 176.68,-441.59 182.41,-442.2 187.99,-442.96 193.41,-443.87 198.65,-444.93 203.7,-446.14 208.54,-447.49 213.17,-448.99 217.56,-450.64 221.71,-452.42 225.61,-454.33 229.24,-456.38 232.59,-458.54 235.66,-460.82 238.43,-463.2 240.91,-465.68 243.08,-468.24 244.94,-470.89 246.47,-473.6 247.69,-476.37 248.59,-479.19 249.16,-482.04 249.4,-484.92 249.32,-487.8 248.91,-490.69 248.18,-493.57"/>
<text text-anchor="middle" x="130.57" y="-483.15" font-family="sans-serif" font-size="16.00">SpecificationSDK</text>
</g>
<!-- SpecificationDSL&#45;&gt;SpecificationSDK -->
<g id="edge4" class="edge">
<title>SpecificationDSL&#45;&gt;SpecificationSDK</title>
<path fill="none" stroke="black" stroke-width="2" d="M130.57,-587.1C130.57,-570.2 130.57,-550.67 130.57,-533.43"/>
<text text-anchor="middle" x="197.57" y="-557.01" font-family="sans-serif" font-size="12.00"> &#160;&#160;&#160;&#160;&#160;&#160;&#160;&#160;&#160;&#160;&#160;&#160;&#160;&#160;&#160;&#160;&#160;&#160;&#160;&#160;&#160;&#160;&#160;&#160;&#160;&#160;&#160;&#160;&#160;&#160;&#160;&#160;&#160;&#160;&#160;&#160;&#160;&#160;&#160;</text>
<polygon fill="white" stroke="transparent" points="112.57,-523.43 112.57,-542.43 127.57,-542.43 127.57,-523.43 112.57,-523.43"/>
<polyline fill="none" stroke="black" points="127.57,-523.43 127.57,-542.43 "/>
<text text-anchor="start" x="115.57" y="-529.83" font-family="sans-serif" font-size="12.00">D</text>
<polygon fill="white" stroke="transparent" points="127.57,-523.43 127.57,-542.43 149.57,-542.43 149.57,-523.43 127.57,-523.43"/>
<polygon fill="none" stroke="black" points="127.57,-523.43 127.57,-542.43 149.57,-542.43 149.57,-523.43 127.57,-523.43"/>
<text text-anchor="start" x="130.57" y="-529.83" font-family="sans-serif" font-size="12.00">CF</text>
<polygon fill="white" stroke="transparent" points="112.57,-577.1 112.57,-596.1 127.57,-596.1 127.57,-577.1 112.57,-577.1"/>
<polyline fill="none" stroke="black" points="127.57,-577.1 127.57,-596.1 "/>
<text text-anchor="start" x="115.57" y="-583.5" font-family="sans-serif" font-size="12.00">U</text>
<polygon fill="white" stroke="transparent" points="127.57,-577.1 127.57,-596.1 148.57,-596.1 148.57,-577.1 127.57,-577.1"/>
<polygon fill="none" stroke="black" points="127.57,-577.1 127.57,-596.1 148.57,-596.1 148.57,-577.1 127.57,-577.1"/>
<text text-anchor="start" x="130.57" y="-583.5" font-family="sans-serif" font-size="12.00">PL</text>
</g>
<!-- SpecificationSDK&#45;&gt;Certification -->
<g id="edge5" class="edge">
<title>SpecificationSDK&#45;&gt;Certification</title>
<path fill="none" stroke="black" stroke-width="2" d="M176.89,-441.22C196.88,-421.91 220.05,-399.55 239.31,-380.95"/>
<text text-anchor="middle" x="276.57" y="-410.68" font-family="sans-serif" font-size="12.00"> &#160;&#160;&#160;&#160;&#160;&#160;&#160;&#160;&#160;&#160;&#160;&#160;&#160;&#160;&#160;&#160;&#160;&#160;&#160;&#160;&#160;&#160;&#160;&#160;&#160;&#160;&#160;&#160;&#160;&#160;&#160;&#160;&#160;&#160;&#160;&#160;&#160;&#160;&#160;</text>
<polygon fill="white" stroke="transparent" points="221.31,-370.95 221.31,-389.95 236.31,-389.95 236.31,-370.95 221.31,-370.95"/>
<polyline fill="none" stroke="black" points="236.31,-370.95 236.31,-389.95 "/>
<text text-anchor="start" x="224.31" y="-377.35" font-family="sans-serif" font-size="12.00">D</text>
<polygon fill="white" stroke="transparent" points="236.31,-370.95 236.31,-389.95 258.31,-389.95 258.31,-370.95 236.31,-370.95"/>
<polygon fill="none" stroke="black" points="236.31,-370.95 236.31,-389.95 258.31,-389.95 258.31,-370.95 236.31,-370.95"/>
<text text-anchor="start" x="239.31" y="-377.35" font-family="sans-serif" font-size="12.00">CF</text>
<polygon fill="white" stroke="transparent" points="158.89,-431.22 158.89,-450.22 173.89,-450.22 173.89,-431.22 158.89,-431.22"/>
<polyline fill="none" stroke="black" points="173.89,-431.22 173.89,-450.22 "/>
<text text-anchor="start" x="161.89" y="-437.62" font-family="sans-serif" font-size="12.00">U</text>
<polygon fill="white" stroke="transparent" points="173.89,-431.22 173.89,-450.22 194.89,-450.22 194.89,-431.22 173.89,-431.22"/>
<polygon fill="none" stroke="black" points="173.89,-431.22 173.89,-450.22 194.89,-450.22 194.89,-431.22 173.89,-431.22"/>
<text text-anchor="start" x="176.89" y="-437.62" font-family="sans-serif" font-size="12.00">PL</text>
</g>
<!-- SpecificationRepository -->
<g id="node7" class="node">
<title>SpecificationRepository</title>
<polygon fill="none" stroke="black" stroke-width="2" points="540.22,-516.81 533.67,-518.96 526.85,-521.01 519.8,-522.96 512.53,-524.79 505.08,-526.51 497.47,-528.09 489.74,-529.55 481.9,-530.86 473.98,-532.02 466.01,-533.04 458.01,-533.9 450.01,-534.6 442.04,-535.14 434.1,-535.52 426.24,-535.73 418.46,-535.78 410.79,-535.67 403.24,-535.39 395.83,-534.96 388.59,-534.37 381.51,-533.62 374.63,-532.72 367.94,-531.68 361.47,-530.5 355.22,-529.19 349.2,-527.75 343.42,-526.19 337.89,-524.52 332.61,-522.74 327.6,-520.87 322.85,-518.9 318.38,-516.86 314.18,-514.75 310.27,-512.58 306.63,-510.35 303.29,-508.08 300.23,-505.77 297.47,-503.43 295.01,-501.07 292.84,-498.71 290.97,-496.33 289.41,-493.97 288.15,-491.61 287.21,-489.27 286.57,-486.96 286.25,-484.67 286.25,-482.42 286.56,-480.22 287.2,-478.05 288.16,-475.94 289.45,-473.88 291.06,-471.88 293.01,-469.95 295.28,-468.07 297.89,-466.26 300.84,-464.51 304.11,-462.84 307.72,-461.24 311.65,-459.71 315.92,-458.25 320.5,-456.87 325.41,-455.56 330.63,-454.32 336.16,-453.16 341.98,-452.08 348.1,-451.08 354.49,-450.15 361.15,-449.29 368.07,-448.52 375.22,-447.82 382.6,-447.2 390.18,-446.66 397.95,-446.2 405.88,-445.83 413.95,-445.53 422.15,-445.32 430.44,-445.19 438.81,-445.15 447.22,-445.19 455.64,-445.33 464.06,-445.55 472.44,-445.87 480.75,-446.28 488.96,-446.78 497.04,-447.38 504.97,-448.08 512.71,-448.87 520.24,-449.77 527.52,-450.77 534.53,-451.86 541.24,-453.06 547.62,-454.36 553.65,-455.76 559.31,-457.26 564.57,-458.85 569.4,-460.55 573.8,-462.33 577.74,-464.21 581.21,-466.18 584.2,-468.23 586.68,-470.36 588.66,-472.56 590.13,-474.84 591.07,-477.18 591.5,-479.57 591.4,-482.02 590.79,-484.51 589.66,-487.03 588.02,-489.59 585.87,-492.16 583.24,-494.74 580.14,-497.32 576.57,-499.89 572.55,-502.44 568.11,-504.97 563.26,-507.45 558.02,-509.89 552.42,-512.27 546.48,-514.58 540.22,-516.81"/>
<text text-anchor="middle" x="429.57" y="-483.15" font-family="sans-serif" font-size="16.00">SpecificationRepository</text>
</g>
<!-- SpecificationRepository&#45;&gt;Certification -->
<g id="edge6" class="edge">
<title>SpecificationRepository&#45;&gt;Certification</title>
<path fill="none" stroke="black" stroke-width="2" d="M388.58,-446.64C368.63,-427.5 344.6,-404.46 324.19,-384.88"/>
<text text-anchor="middle" x="425.57" y="-410.68" font-family="sans-serif" font-size="12.00"> &#160;&#160;&#160;&#160;&#160;&#160;&#160;&#160;&#160;&#160;&#160;&#160;&#160;&#160;&#160;&#160;&#160;&#160;&#160;&#160;&#160;&#160;&#160;&#160;&#160;&#160;&#160;&#160;&#160;&#160;&#160;&#160;&#160;&#160;&#160;&#160;&#160;&#160;&#160;</text>
<polygon fill="white" stroke="transparent" points="302.19,-374.88 302.19,-393.88 317.19,-393.88 317.19,-374.88 302.19,-374.88"/>
<polyline fill="none" stroke="black" points="317.19,-374.88 317.19,-393.88 "/>
<text text-anchor="start" x="305.19" y="-381.28" font-family="sans-serif" font-size="12.00">D</text>
<polygon fill="white" stroke="transparent" points="317.19,-374.88 317.19,-393.88 347.19,-393.88 347.19,-374.88 317.19,-374.88"/>
<polygon fill="none" stroke="black" points="317.19,-374.88 317.19,-393.88 347.19,-393.88 347.19,-374.88 317.19,-374.88"/>
<text text-anchor="start" x="320.19" y="-381.28" font-family="sans-serif" font-size="12.00">ACL</text>
<polygon fill="white" stroke="transparent" points="354.58,-436.64 354.58,-455.64 369.58,-455.64 369.58,-436.64 354.58,-436.64"/>
<polyline fill="none" stroke="black" points="369.58,-436.64 369.58,-455.64 "/>
<text text-anchor="start" x="357.58" y="-443.04" font-family="sans-serif" font-size="12.00">U</text>
<polygon fill="white" stroke="transparent" points="369.58,-436.64 369.58,-455.64 423.58,-455.64 423.58,-436.64 369.58,-436.64"/>
<polygon fill="none" stroke="black" points="369.58,-436.64 369.58,-455.64 423.58,-455.64 423.58,-436.64 369.58,-436.64"/>
<text text-anchor="start" x="372.58" y="-443.04" font-family="sans-serif" font-size="12.00">OHS, PL</text>
</g>
</g>
</svg>
